<svg id="visual" viewBox="0 0 900 600" width="900" height="600" xmlns="http://www.w3.org/2000/svg" xmlns:xlink="http://www.w3.org/1999/xlink" version="1.1"><g stroke-width="1" stroke-linejoin="bevel"><path d="M415.1 292L359.3 339L409.1 340Z" fill="#5a5a5a" stroke="#5a5a5a"></path><path d="M415.1 292L297.3 271L359.3 339Z" fill="#444444" stroke="#444444"></path><path d="M518.9 258L447.1 210L415.1 292Z" fill="#2d2d2d" stroke="#2d2d2d"></path><path d="M415.1 292L447.1 210L297.3 271Z" fill="#525252" stroke="#525252"></path><path d="M403.1 499L483.9 387L409.1 340Z" fill="#4b4b4b" stroke="#4b4b4b"></path><path d="M409.1 340L483.9 387L415.1 292Z" fill="#3a3a3a" stroke="#3a3a3a"></path><path d="M297.3 271L281.3 393L359.3 339Z" fill="#333333" stroke="#333333"></path><path d="M359.3 339L403.1 499L409.1 340Z" fill="#2d2d2d" stroke="#2d2d2d"></path><path d="M483.9 387L518.9 258L415.1 292Z" fill="#3a3a3a" stroke="#3a3a3a"></path><path d="M281.3 393L285.3 419L359.3 339Z" fill="#525252" stroke="#525252"></path><path d="M300.3 165L258.5 230L297.3 271Z" fill="#2d2d2d" stroke="#2d2d2d"></path><path d="M297.3 271L228.5 298L281.3 393Z" fill="#4b4b4b" stroke="#4b4b4b"></path><path d="M285.3 419L292.5 433L359.3 339Z" fill="#2d2d2d" stroke="#2d2d2d"></path><path d="M518.9 258L464.9 178L447.1 210Z" fill="#616161" stroke="#616161"></path><path d="M447.1 210L300.3 165L297.3 271Z" fill="#333333" stroke="#333333"></path><path d="M258.5 230L228.5 298L297.3 271Z" fill="#3d3d3d" stroke="#3d3d3d"></path><path d="M281.3 393L200.5 355L285.3 419Z" fill="#616161" stroke="#616161"></path><path d="M464.9 178L441.1 154L447.1 210Z" fill="#2d2d2d" stroke="#2d2d2d"></path><path d="M441.1 154L300.3 165L447.1 210Z" fill="#4b4b4b" stroke="#4b4b4b"></path><path d="M484.9 477L527.7 415L483.9 387Z" fill="#525252" stroke="#525252"></path><path d="M483.9 387L582.7 271L518.9 258Z" fill="#4b4b4b" stroke="#4b4b4b"></path><path d="M292.5 433L403.1 499L359.3 339Z" fill="#525252" stroke="#525252"></path><path d="M582.7 271L561.7 248L518.9 258Z" fill="#373737" stroke="#373737"></path><path d="M518.9 258L561.7 248L464.9 178Z" fill="#5a5a5a" stroke="#5a5a5a"></path><path d="M464.9 178L537.9 127L441.1 154Z" fill="#333333" stroke="#333333"></path><path d="M148.6 336L200.5 355L228.5 298Z" fill="#616161" stroke="#616161"></path><path d="M228.5 298L200.5 355L281.3 393Z" fill="#373737" stroke="#373737"></path><path d="M285.3 419L199.5 516L292.5 433Z" fill="#5a5a5a" stroke="#5a5a5a"></path><path d="M403.1 499L484.9 477L483.9 387Z" fill="#3d3d3d" stroke="#3d3d3d"></path><path d="M527.7 415L582.7 271L483.9 387Z" fill="#2d2d2d" stroke="#2d2d2d"></path><path d="M403.1 499L493.9 496L484.9 477Z" fill="#333333" stroke="#333333"></path><path d="M484.9 477L564.7 468L527.7 415Z" fill="#2d2d2d" stroke="#2d2d2d"></path><path d="M292.5 433L315.3 529L403.1 499Z" fill="#444444" stroke="#444444"></path><path d="M403.1 499L425.1 600L493.9 496Z" fill="#373737" stroke="#373737"></path><path d="M199.5 516L315.3 529L292.5 433Z" fill="#616161" stroke="#616161"></path><path d="M176.6 173L148.6 336L228.5 298Z" fill="#2d2d2d" stroke="#2d2d2d"></path><path d="M151.6 493L199.5 516L285.3 419Z" fill="#3d3d3d" stroke="#3d3d3d"></path><path d="M176.6 173L228.5 298L258.5 230Z" fill="#373737" stroke="#373737"></path><path d="M493.9 496L564.7 468L484.9 477Z" fill="#616161" stroke="#616161"></path><path d="M527.7 415L657.5 390L582.7 271Z" fill="#373737" stroke="#373737"></path><path d="M304.3 68L248.5 117L300.3 165Z" fill="#3d3d3d" stroke="#3d3d3d"></path><path d="M300.3 165L248.5 117L258.5 230Z" fill="#3a3a3a" stroke="#3a3a3a"></path><path d="M561.7 248L537.9 127L464.9 178Z" fill="#5a5a5a" stroke="#5a5a5a"></path><path d="M441.1 154L376.1 71L300.3 165Z" fill="#444444" stroke="#444444"></path><path d="M623.5 206L537.9 127L561.7 248Z" fill="#2d2d2d" stroke="#2d2d2d"></path><path d="M514.9 38L376.1 71L441.1 154Z" fill="#4b4b4b" stroke="#4b4b4b"></path><path d="M315.3 529L367.1 557L403.1 499Z" fill="#2d2d2d" stroke="#2d2d2d"></path><path d="M633.5 516L605.7 477L564.7 468Z" fill="#616161" stroke="#616161"></path><path d="M248.5 117L176.6 173L258.5 230Z" fill="#4b4b4b" stroke="#4b4b4b"></path><path d="M376.1 71L304.3 68L300.3 165Z" fill="#333333" stroke="#333333"></path><path d="M248.5 117L196.6 79L176.6 173Z" fill="#2d2d2d" stroke="#2d2d2d"></path><path d="M72.8 328L130.8 364L148.6 336Z" fill="#303030" stroke="#303030"></path><path d="M148.6 336L130.8 364L200.5 355Z" fill="#303030" stroke="#303030"></path><path d="M722.4 315L623.5 206L582.7 271Z" fill="#303030" stroke="#303030"></path><path d="M582.7 271L623.5 206L561.7 248Z" fill="#333333" stroke="#333333"></path><path d="M151.6 493L285.3 419L200.5 355Z" fill="#4b4b4b" stroke="#4b4b4b"></path><path d="M315.3 529L282.3 600L367.1 557Z" fill="#616161" stroke="#616161"></path><path d="M611.7 600L564.7 468L493.9 496Z" fill="#444444" stroke="#444444"></path><path d="M564.7 468L657.5 390L527.7 415Z" fill="#303030" stroke="#303030"></path><path d="M130.8 364L123.6 402L200.5 355Z" fill="#3a3a3a" stroke="#3a3a3a"></path><path d="M304.3 68L227.5 85L248.5 117Z" fill="#444444" stroke="#444444"></path><path d="M605.7 477L657.5 390L564.7 468Z" fill="#5a5a5a" stroke="#5a5a5a"></path><path d="M282.3 600L425.1 600L367.1 557Z" fill="#616161" stroke="#616161"></path><path d="M367.1 557L425.1 600L403.1 499Z" fill="#333333" stroke="#333333"></path><path d="M635.5 160L596.7 110L537.9 127Z" fill="#333333" stroke="#333333"></path><path d="M537.9 127L514.9 38L441.1 154Z" fill="#333333" stroke="#333333"></path><path d="M697.4 132L635.5 160L737.4 189Z" fill="#525252" stroke="#525252"></path><path d="M623.5 206L635.5 160L537.9 127Z" fill="#616161" stroke="#616161"></path><path d="M123.6 402L151.6 493L200.5 355Z" fill="#2d2d2d" stroke="#2d2d2d"></path><path d="M151.6 493L184.6 535L199.5 516Z" fill="#373737" stroke="#373737"></path><path d="M248.5 600L282.3 600L315.3 529Z" fill="#333333" stroke="#333333"></path><path d="M198.6 0L196.6 79L227.5 85Z" fill="#3d3d3d" stroke="#3d3d3d"></path><path d="M227.5 85L196.6 79L248.5 117Z" fill="#3d3d3d" stroke="#3d3d3d"></path><path d="M73.8 262L72.8 328L148.6 336Z" fill="#525252" stroke="#525252"></path><path d="M563.7 48L514.9 38L537.9 127Z" fill="#333333" stroke="#333333"></path><path d="M376.1 71L370.3 0L304.3 68Z" fill="#525252" stroke="#525252"></path><path d="M304.3 68L242.5 0L227.5 85Z" fill="#5a5a5a" stroke="#5a5a5a"></path><path d="M724.4 447L687.5 349L657.5 390Z" fill="#3a3a3a" stroke="#3a3a3a"></path><path d="M657.5 390L687.5 349L582.7 271Z" fill="#3a3a3a" stroke="#3a3a3a"></path><path d="M248.5 600L315.3 529L199.5 516Z" fill="#333333" stroke="#333333"></path><path d="M425.1 600L489.9 600L493.9 496Z" fill="#333333" stroke="#333333"></path><path d="M196.6 79L143.6 120L176.6 173Z" fill="#303030" stroke="#303030"></path><path d="M130.8 364L72.8 328L123.6 402Z" fill="#616161" stroke="#616161"></path><path d="M73.8 262L148.6 336L176.6 173Z" fill="#3d3d3d" stroke="#3d3d3d"></path><path d="M123.6 402L130.8 498L151.6 493Z" fill="#373737" stroke="#373737"></path><path d="M453.9 0L386.1 0L376.1 71Z" fill="#3a3a3a" stroke="#3a3a3a"></path><path d="M386.1 0L370.3 0L376.1 71Z" fill="#373737" stroke="#373737"></path><path d="M635.5 160L605.5 90L596.7 110Z" fill="#616161" stroke="#616161"></path><path d="M596.7 110L563.7 48L537.9 127Z" fill="#333333" stroke="#333333"></path><path d="M151.6 493L130.8 498L184.6 535Z" fill="#3a3a3a" stroke="#3a3a3a"></path><path d="M107.8 555L130.8 498L0 483Z" fill="#333333" stroke="#333333"></path><path d="M143.6 120L73.8 262L176.6 173Z" fill="#3a3a3a" stroke="#3a3a3a"></path><path d="M169.6 600L248.5 600L184.6 535Z" fill="#3a3a3a" stroke="#3a3a3a"></path><path d="M184.6 535L248.5 600L199.5 516Z" fill="#444444" stroke="#444444"></path><path d="M605.5 90L563.7 48L596.7 110Z" fill="#4b4b4b" stroke="#4b4b4b"></path><path d="M514.9 38L453.9 0L376.1 71Z" fill="#373737" stroke="#373737"></path><path d="M552.7 0L453.9 0L514.9 38Z" fill="#444444" stroke="#444444"></path><path d="M611.7 600L633.5 516L564.7 468Z" fill="#333333" stroke="#333333"></path><path d="M605.7 477L693.5 483L657.5 390Z" fill="#5a5a5a" stroke="#5a5a5a"></path><path d="M196.6 79L132.8 107L143.6 120Z" fill="#444444" stroke="#444444"></path><path d="M143.6 120L0 199L73.8 262Z" fill="#5a5a5a" stroke="#5a5a5a"></path><path d="M198.6 0L132.8 107L196.6 79Z" fill="#525252" stroke="#525252"></path><path d="M758.4 361L722.4 315L687.5 349Z" fill="#333333" stroke="#333333"></path><path d="M687.5 349L722.4 315L582.7 271Z" fill="#303030" stroke="#303030"></path><path d="M635.5 160L697.4 132L605.5 90Z" fill="#444444" stroke="#444444"></path><path d="M370.3 0L242.5 0L304.3 68Z" fill="#3a3a3a" stroke="#3a3a3a"></path><path d="M748.4 548L693.5 483L633.5 516Z" fill="#2d2d2d" stroke="#2d2d2d"></path><path d="M633.5 516L693.5 483L605.7 477Z" fill="#616161" stroke="#616161"></path><path d="M687.5 0L552.7 0L563.7 48Z" fill="#616161" stroke="#616161"></path><path d="M563.7 48L552.7 0L514.9 38Z" fill="#616161" stroke="#616161"></path><path d="M107.8 555L169.6 600L184.6 535Z" fill="#3a3a3a" stroke="#3a3a3a"></path><path d="M737.4 189L635.5 160L623.5 206Z" fill="#4b4b4b" stroke="#4b4b4b"></path><path d="M605.5 90L684.4 60L563.7 48Z" fill="#444444" stroke="#444444"></path><path d="M242.5 0L198.6 0L227.5 85Z" fill="#3d3d3d" stroke="#3d3d3d"></path><path d="M693.5 483L724.4 447L657.5 390Z" fill="#333333" stroke="#333333"></path><path d="M489.9 600L611.7 600L493.9 496Z" fill="#444444" stroke="#444444"></path><path d="M782.2 495L777.2 424L724.4 447Z" fill="#373737" stroke="#373737"></path><path d="M0 483L130.8 498L123.6 402Z" fill="#616161" stroke="#616161"></path><path d="M130.8 498L107.8 555L184.6 535Z" fill="#444444" stroke="#444444"></path><path d="M722.4 315L737.4 189L623.5 206Z" fill="#303030" stroke="#303030"></path><path d="M786.2 263L737.4 189L722.4 315Z" fill="#3d3d3d" stroke="#3d3d3d"></path><path d="M724.4 447L758.4 361L687.5 349Z" fill="#4b4b4b" stroke="#4b4b4b"></path><path d="M73.8 262L0 316L72.8 328Z" fill="#303030" stroke="#303030"></path><path d="M72.8 328L0 483L123.6 402Z" fill="#5a5a5a" stroke="#5a5a5a"></path><path d="M0 199L0 316L73.8 262Z" fill="#2d2d2d" stroke="#2d2d2d"></path><path d="M0 199L143.6 120L132.8 107Z" fill="#616161" stroke="#616161"></path><path d="M0 316L0 325L72.8 328Z" fill="#2d2d2d" stroke="#2d2d2d"></path><path d="M611.7 600L647.5 600L633.5 516Z" fill="#373737" stroke="#373737"></path><path d="M786.2 90L684.4 60L697.4 132Z" fill="#4b4b4b" stroke="#4b4b4b"></path><path d="M697.4 132L684.4 60L605.5 90Z" fill="#2d2d2d" stroke="#2d2d2d"></path><path d="M0 119L0 199L132.8 107Z" fill="#525252" stroke="#525252"></path><path d="M758.4 361L786.2 263L722.4 315Z" fill="#3d3d3d" stroke="#3d3d3d"></path><path d="M737.4 189L786.2 90L697.4 132Z" fill="#525252" stroke="#525252"></path><path d="M76.8 0L63.8 66L132.8 107Z" fill="#5a5a5a" stroke="#5a5a5a"></path><path d="M786.2 263L770.2 189L737.4 189Z" fill="#333333" stroke="#333333"></path><path d="M782.2 495L724.4 447L693.5 483Z" fill="#303030" stroke="#303030"></path><path d="M724.4 447L777.2 424L758.4 361Z" fill="#3d3d3d" stroke="#3d3d3d"></path><path d="M758.4 361L900 291L786.2 263Z" fill="#5a5a5a" stroke="#5a5a5a"></path><path d="M0 325L0 483L72.8 328Z" fill="#2d2d2d" stroke="#2d2d2d"></path><path d="M107.8 555L51.8 600L169.6 600Z" fill="#3a3a3a" stroke="#3a3a3a"></path><path d="M63.8 66L0 119L132.8 107Z" fill="#303030" stroke="#303030"></path><path d="M647.5 600L748.4 548L633.5 516Z" fill="#2d2d2d" stroke="#2d2d2d"></path><path d="M731.4 0L687.5 0L684.4 60Z" fill="#333333" stroke="#333333"></path><path d="M684.4 60L687.5 0L563.7 48Z" fill="#444444" stroke="#444444"></path><path d="M748.4 548L782.2 495L693.5 483Z" fill="#333333" stroke="#333333"></path><path d="M900 218L811.2 200L786.2 263Z" fill="#4b4b4b" stroke="#4b4b4b"></path><path d="M198.6 0L76.8 0L132.8 107Z" fill="#525252" stroke="#525252"></path><path d="M63.8 66L0 90L0 119Z" fill="#333333" stroke="#333333"></path><path d="M0 564L51.8 600L107.8 555Z" fill="#616161" stroke="#616161"></path><path d="M786.2 263L811.2 200L770.2 189Z" fill="#373737" stroke="#373737"></path><path d="M770.2 189L786.2 90L737.4 189Z" fill="#4b4b4b" stroke="#4b4b4b"></path><path d="M900 291L758.4 361L900 378Z" fill="#373737" stroke="#373737"></path><path d="M0 0L0 90L63.8 66Z" fill="#303030" stroke="#303030"></path><path d="M748.4 548L810.2 538L782.2 495Z" fill="#4b4b4b" stroke="#4b4b4b"></path><path d="M647.5 600L725.4 600L748.4 548Z" fill="#525252" stroke="#525252"></path><path d="M811.2 200L786.2 90L770.2 189Z" fill="#616161" stroke="#616161"></path><path d="M0 483L0 564L107.8 555Z" fill="#2d2d2d" stroke="#2d2d2d"></path><path d="M786.2 90L731.4 0L684.4 60Z" fill="#5a5a5a" stroke="#5a5a5a"></path><path d="M0 564L0 600L51.8 600Z" fill="#303030" stroke="#303030"></path><path d="M826.2 600L810.2 538L748.4 548Z" fill="#5a5a5a" stroke="#5a5a5a"></path><path d="M900 467L900 378L777.2 424Z" fill="#3a3a3a" stroke="#3a3a3a"></path><path d="M76.8 0L0 0L63.8 66Z" fill="#525252" stroke="#525252"></path><path d="M900 378L758.4 361L777.2 424Z" fill="#5a5a5a" stroke="#5a5a5a"></path><path d="M811.2 200L900 130L786.2 90Z" fill="#303030" stroke="#303030"></path><path d="M900 467L777.2 424L782.2 495Z" fill="#373737" stroke="#373737"></path><path d="M900 291L900 218L786.2 263Z" fill="#525252" stroke="#525252"></path><path d="M786.2 90L852.2 0L731.4 0Z" fill="#444444" stroke="#444444"></path><path d="M725.4 600L826.2 600L748.4 548Z" fill="#303030" stroke="#303030"></path><path d="M900 497L900 467L782.2 495Z" fill="#3a3a3a" stroke="#3a3a3a"></path><path d="M900 497L782.2 495L810.2 538Z" fill="#303030" stroke="#303030"></path><path d="M900 218L900 130L811.2 200Z" fill="#303030" stroke="#303030"></path><path d="M900 600L900 497L810.2 538Z" fill="#2d2d2d" stroke="#2d2d2d"></path><path d="M900 130L900 102L786.2 90Z" fill="#4b4b4b" stroke="#4b4b4b"></path><path d="M900 102L852.2 0L786.2 90Z" fill="#525252" stroke="#525252"></path><path d="M826.2 600L900 600L810.2 538Z" fill="#4b4b4b" stroke="#4b4b4b"></path><path d="M900 102L900 0L852.2 0Z" fill="#4b4b4b" stroke="#4b4b4b"></path></g></svg>