<svg width="60" height="60" viewBox="0 0 60 60" fill="none" xmlns="http://www.w3.org/2000/svg">
<path fill-rule="evenodd" clip-rule="evenodd" d="M58 21.4618L49.8089 47H10.1911L2 21.4618L18.1607 30.6922L30 8L41.8393 30.6922L58 21.4618Z" fill="#F2C94C"/>
<path d="M58.1196 21.4327L59.9078 22.0216C60.1474 21.2746 59.9101 20.4552 59.3104 19.9578C58.7106 19.4603 57.8712 19.3868 57.1962 19.7725L58.1196 21.4327ZM49.8935 47.0942V49C50.7081 49 51.4301 48.4684 51.6817 47.6831L49.8935 47.0942ZM10.1065 47.0942L8.31823 47.6831C8.5699 48.4684 9.29184 49 10.1065 49V47.0942ZM1.88036 21.4327L2.80386 19.7725C2.12875 19.3868 1.28937 19.4603 0.689625 19.9578C0.0898748 20.4552 -0.14735 21.2746 0.0921212 22.0217L1.88036 21.4327ZM18.1101 30.7076L17.1866 32.3677C17.6288 32.6204 18.1529 32.6811 18.6398 32.5362C19.1268 32.3913 19.5353 32.0529 19.7725 31.5981L18.1101 30.7076ZM30 7.90583L31.6624 7.01524C31.3367 6.3907 30.697 6 30 6C29.303 6 28.6633 6.3907 28.3376 7.01524L30 7.90583ZM41.8898 30.7076L40.2275 31.5981C40.4647 32.0529 40.8732 32.3913 41.3602 32.5362C41.8472 32.6811 42.3712 32.6204 42.8133 32.3677L41.8898 30.7076ZM56.3314 20.8438L48.1053 46.5053L51.6817 47.6831L59.9078 22.0216L56.3314 20.8438ZM49.8935 45.1883H10.1065V49H49.8935V45.1883ZM11.8947 46.5053L3.6686 20.8438L0.0921212 22.0217L8.31823 47.6831L11.8947 46.5053ZM0.956906 23.0929L17.1866 32.3677L19.0335 29.0474L2.80386 19.7725L0.956906 23.0929ZM19.7725 31.5981L31.6624 8.79643L28.3376 7.01524L16.4478 29.817L19.7725 31.5981ZM28.3376 8.79643L40.2275 31.5981L43.5522 29.817L31.6624 7.01524L28.3376 8.79643ZM42.8133 32.3677L59.0431 23.0929L57.1962 19.7725L40.9664 29.0474L42.8133 32.3677Z" fill="#F2994A"/>
<path d="M49 55H11" stroke="#F2994A" stroke-width="4" stroke-linecap="round" stroke-linejoin="round"/>
</svg>
