<svg id="visual" viewBox="0 0 900 600" width="900" height="600" xmlns="http://www.w3.org/2000/svg" xmlns:xlink="http://www.w3.org/1999/xlink" version="1.1"><g stroke-width="1" stroke-linejoin="bevel"><path d="M419 261L494 326L432 218Z" fill="#4b4b4b" stroke="#161823"></path><path d="M494 326L463 192L432 218Z" fill="#767676" stroke="#161823"></path><path d="M494 326L594 282L463 192Z" fill="#767676" stroke="#161823"></path><path d="M594 282L588 187L463 192Z" fill="#7d7d7d" stroke="#161823"></path><path d="M588 187L461 121L463 192Z" fill="#595959" stroke="#161823"></path><path d="M463 192L402 135L432 218Z" fill="#595959" stroke="#161823"></path><path d="M432 218L288 222L419 261Z" fill="#595959" stroke="#161823"></path><path d="M461 121L402 135L463 192Z" fill="#676767" stroke="#161823"></path><path d="M381 424L513 409L494 326Z" fill="#6f6f6f" stroke="#161823"></path><path d="M494 326L513 409L594 282Z" fill="#6f6f6f" stroke="#161823"></path><path d="M707 235L593 107L588 187Z" fill="#7d7d7d" stroke="#161823"></path><path d="M588 187L593 107L461 121Z" fill="#444444" stroke="#161823"></path><path d="M272 294L381 424L419 261Z" fill="#767676" stroke="#161823"></path><path d="M419 261L381 424L494 326Z" fill="#767676" stroke="#161823"></path><path d="M402 135L288 222L432 218Z" fill="#595959" stroke="#161823"></path><path d="M629 409L685 318L594 282Z" fill="#4b4b4b" stroke="#161823"></path><path d="M594 282L707 235L588 187Z" fill="#3d3d3d" stroke="#161823"></path><path d="M513 409L629 409L594 282Z" fill="#676767" stroke="#161823"></path><path d="M516 512L629 409L513 409Z" fill="#606060" stroke="#161823"></path><path d="M288 222L272 294L419 261Z" fill="#676767" stroke="#161823"></path><path d="M685 318L707 235L594 282Z" fill="#4b4b4b" stroke="#161823"></path><path d="M272 294L282 390L381 424Z" fill="#858585" stroke="#161823"></path><path d="M387 527L516 512L381 424Z" fill="#676767" stroke="#161823"></path><path d="M381 424L516 512L513 409Z" fill="#676767" stroke="#161823"></path><path d="M578 0L522 0L593 107Z" fill="#767676" stroke="#161823"></path><path d="M593 107L522 0L461 121Z" fill="#606060" stroke="#161823"></path><path d="M461 121L414 0L402 135Z" fill="#767676" stroke="#161823"></path><path d="M402 135L275 77L288 222Z" fill="#3d3d3d" stroke="#161823"></path><path d="M629 409L681 435L685 318Z" fill="#444444" stroke="#161823"></path><path d="M685 318L778 316L707 235Z" fill="#858585" stroke="#161823"></path><path d="M692 463L681 435L629 409Z" fill="#6f6f6f" stroke="#161823"></path><path d="M707 235L665 60L593 107Z" fill="#525252" stroke="#161823"></path><path d="M522 0L414 0L461 121Z" fill="#676767" stroke="#161823"></path><path d="M665 60L578 0L593 107Z" fill="#525252" stroke="#161823"></path><path d="M304 0L275 77L402 135Z" fill="#767676" stroke="#161823"></path><path d="M196 169L202 330L272 294Z" fill="#858585" stroke="#161823"></path><path d="M334 538L387 527L381 424Z" fill="#4b4b4b" stroke="#161823"></path><path d="M634 533L692 463L629 409Z" fill="#4b4b4b" stroke="#161823"></path><path d="M785 389L778 316L685 318Z" fill="#6f6f6f" stroke="#161823"></path><path d="M272 294L202 330L282 390Z" fill="#6f6f6f" stroke="#161823"></path><path d="M282 390L334 538L381 424Z" fill="#676767" stroke="#161823"></path><path d="M196 169L272 294L288 222Z" fill="#525252" stroke="#161823"></path><path d="M785 389L685 318L681 435Z" fill="#4b4b4b" stroke="#161823"></path><path d="M707 235L788 105L665 60Z" fill="#858585" stroke="#161823"></path><path d="M275 77L196 169L288 222Z" fill="#7d7d7d" stroke="#161823"></path><path d="M202 330L219 405L282 390Z" fill="#606060" stroke="#161823"></path><path d="M778 316L790 192L707 235Z" fill="#676767" stroke="#161823"></path><path d="M516 512L634 533L629 409Z" fill="#858585" stroke="#161823"></path><path d="M561 600L634 533L516 512Z" fill="#6f6f6f" stroke="#161823"></path><path d="M414 0L304 0L402 135Z" fill="#3d3d3d" stroke="#161823"></path><path d="M275 77L161 90L196 169Z" fill="#595959" stroke="#161823"></path><path d="M228 523L334 538L282 390Z" fill="#3d3d3d" stroke="#161823"></path><path d="M387 527L469 600L516 512Z" fill="#7d7d7d" stroke="#161823"></path><path d="M823 511L785 389L692 463Z" fill="#595959" stroke="#161823"></path><path d="M692 463L785 389L681 435Z" fill="#767676" stroke="#161823"></path><path d="M778 316L900 292L790 192Z" fill="#7d7d7d" stroke="#161823"></path><path d="M788 105L704 0L665 60Z" fill="#3d3d3d" stroke="#161823"></path><path d="M665 60L704 0L578 0Z" fill="#767676" stroke="#161823"></path><path d="M790 192L788 105L707 235Z" fill="#7d7d7d" stroke="#161823"></path><path d="M391 600L469 600L387 527Z" fill="#6f6f6f" stroke="#161823"></path><path d="M469 600L561 600L516 512Z" fill="#4b4b4b" stroke="#161823"></path><path d="M334 538L391 600L387 527Z" fill="#525252" stroke="#161823"></path><path d="M219 0L161 90L275 77Z" fill="#676767" stroke="#161823"></path><path d="M74 229L85 323L202 330Z" fill="#767676" stroke="#161823"></path><path d="M219 405L228 523L282 390Z" fill="#3d3d3d" stroke="#161823"></path><path d="M334 538L261 600L391 600Z" fill="#444444" stroke="#161823"></path><path d="M124 479L228 523L219 405Z" fill="#4b4b4b" stroke="#161823"></path><path d="M90 418L219 405L202 330Z" fill="#7d7d7d" stroke="#161823"></path><path d="M304 0L219 0L275 77Z" fill="#7d7d7d" stroke="#161823"></path><path d="M561 600L699 600L634 533Z" fill="#595959" stroke="#161823"></path><path d="M634 533L699 600L692 463Z" fill="#444444" stroke="#161823"></path><path d="M74 229L202 330L196 169Z" fill="#4b4b4b" stroke="#161823"></path><path d="M178 600L261 600L228 523Z" fill="#858585" stroke="#161823"></path><path d="M228 523L261 600L334 538Z" fill="#595959" stroke="#161823"></path><path d="M62 137L74 229L196 169Z" fill="#3d3d3d" stroke="#161823"></path><path d="M785 389L900 292L778 316Z" fill="#444444" stroke="#161823"></path><path d="M790 192L900 220L788 105Z" fill="#444444" stroke="#161823"></path><path d="M900 437L900 292L785 389Z" fill="#4b4b4b" stroke="#161823"></path><path d="M900 292L900 220L790 192Z" fill="#3d3d3d" stroke="#161823"></path><path d="M788 105L829 0L704 0Z" fill="#444444" stroke="#161823"></path><path d="M699 600L823 511L692 463Z" fill="#606060" stroke="#161823"></path><path d="M90 418L124 479L219 405Z" fill="#3d3d3d" stroke="#161823"></path><path d="M0 368L90 418L85 323Z" fill="#6f6f6f" stroke="#161823"></path><path d="M85 323L90 418L202 330Z" fill="#676767" stroke="#161823"></path><path d="M900 68L829 0L788 105Z" fill="#3d3d3d" stroke="#161823"></path><path d="M161 90L62 137L196 169Z" fill="#595959" stroke="#161823"></path><path d="M74 229L0 286L85 323Z" fill="#4b4b4b" stroke="#161823"></path><path d="M73 0L62 137L161 90Z" fill="#3d3d3d" stroke="#161823"></path><path d="M823 511L900 437L785 389Z" fill="#606060" stroke="#161823"></path><path d="M699 600L786 600L823 511Z" fill="#767676" stroke="#161823"></path><path d="M823 511L900 493L900 437Z" fill="#6f6f6f" stroke="#161823"></path><path d="M900 220L900 68L788 105Z" fill="#4b4b4b" stroke="#161823"></path><path d="M124 479L178 600L228 523Z" fill="#676767" stroke="#161823"></path><path d="M94 600L178 600L124 479Z" fill="#4b4b4b" stroke="#161823"></path><path d="M900 600L900 493L823 511Z" fill="#4b4b4b" stroke="#161823"></path><path d="M900 68L900 0L829 0Z" fill="#4b4b4b" stroke="#161823"></path><path d="M0 219L0 286L74 229Z" fill="#6f6f6f" stroke="#161823"></path><path d="M0 467L94 600L124 479Z" fill="#444444" stroke="#161823"></path><path d="M219 0L73 0L161 90Z" fill="#525252" stroke="#161823"></path><path d="M62 137L0 219L74 229Z" fill="#606060" stroke="#161823"></path><path d="M0 110L0 219L62 137Z" fill="#595959" stroke="#161823"></path><path d="M0 286L0 368L85 323Z" fill="#4b4b4b" stroke="#161823"></path><path d="M73 0L0 110L62 137Z" fill="#676767" stroke="#161823"></path><path d="M0 467L124 479L90 418Z" fill="#4b4b4b" stroke="#161823"></path><path d="M0 368L0 467L90 418Z" fill="#767676" stroke="#161823"></path><path d="M786 600L900 600L823 511Z" fill="#6f6f6f" stroke="#161823"></path><path d="M73 0L0 0L0 110Z" fill="#595959" stroke="#161823"></path><path d="M0 467L0 600L94 600Z" fill="#858585" stroke="#161823"></path></g></svg>